<svg width="83" height="85" viewBox="0 0 83 85" fill="none" xmlns="http://www.w3.org/2000/svg">
<circle cx="5" cy="5" r="4.25" stroke="#D83713" stroke-width="1.5"/>
<circle cx="17.1665" cy="5" r="4.25" stroke="#D83713" stroke-width="1.5"/>
<circle cx="29.3335" cy="5" r="4.25" stroke="#D83713" stroke-width="1.5"/>
<circle cx="41.5" cy="5" r="4.25" stroke="#D83713" stroke-width="1.5"/>
<circle cx="53.6665" cy="5" r="4.25" stroke="#D83713" stroke-width="1.5"/>
<circle cx="65.8335" cy="5" r="4.25" stroke="#D83713" stroke-width="1.5"/>
<circle cx="78" cy="5" r="4.25" stroke="#D83713" stroke-width="1.5"/>
<circle cx="5" cy="20" r="4.25" stroke="#D83713" stroke-width="1.5"/>
<circle cx="17.1665" cy="20" r="4.25" stroke="#D83713" stroke-width="1.5"/>
<circle cx="29.3335" cy="20" r="4.25" stroke="#D83713" stroke-width="1.5"/>
<circle cx="41.5" cy="20" r="4.25" stroke="#D83713" stroke-width="1.5"/>
<circle cx="53.6665" cy="20" r="4.25" stroke="#D83713" stroke-width="1.5"/>
<circle cx="65.8335" cy="20" r="4.25" stroke="#D83713" stroke-width="1.5"/>
<circle cx="78" cy="20" r="4.25" stroke="#D83713" stroke-width="1.5"/>
<circle cx="5" cy="35" r="4.25" stroke="#D83713" stroke-width="1.5"/>
<circle cx="17.1665" cy="35" r="4.25" stroke="#D83713" stroke-width="1.5"/>
<circle cx="29.3335" cy="35" r="4.25" stroke="#D83713" stroke-width="1.5"/>
<circle cx="41.5" cy="35" r="4.25" stroke="#D83713" stroke-width="1.5"/>
<circle cx="53.6665" cy="35" r="4.25" stroke="#D83713" stroke-width="1.5"/>
<circle cx="65.8335" cy="35" r="4.25" stroke="#D83713" stroke-width="1.5"/>
<circle cx="78" cy="35" r="4.25" stroke="#D83713" stroke-width="1.5"/>
<circle cx="5" cy="50" r="4.25" stroke="#D83713" stroke-width="1.5"/>
<circle cx="17.1665" cy="50" r="4.25" stroke="#D83713" stroke-width="1.5"/>
<circle cx="29.3335" cy="50" r="4.25" stroke="#D83713" stroke-width="1.5"/>
<circle cx="41.5" cy="50" r="4.25" stroke="#D83713" stroke-width="1.5"/>
<circle cx="53.6665" cy="50" r="4.25" stroke="#D83713" stroke-width="1.5"/>
<circle cx="65.8335" cy="50" r="4.25" stroke="#D83713" stroke-width="1.5"/>
<circle cx="78" cy="50" r="4.25" stroke="#D83713" stroke-width="1.5"/>
<circle cx="5" cy="65" r="4.25" stroke="#D83713" stroke-width="1.5"/>
<circle cx="17.1665" cy="65" r="4.25" stroke="#D83713" stroke-width="1.5"/>
<circle cx="29.3335" cy="65" r="4.25" stroke="#D83713" stroke-width="1.5"/>
<circle cx="41.5" cy="65" r="4.25" stroke="#D83713" stroke-width="1.5"/>
<circle cx="53.6665" cy="65" r="4.25" stroke="#D83713" stroke-width="1.5"/>
<circle cx="65.8335" cy="65" r="4.25" stroke="#D83713" stroke-width="1.5"/>
<circle cx="78" cy="65" r="4.25" stroke="#D83713" stroke-width="1.5"/>
<circle cx="5" cy="80" r="4.25" stroke="#D83713" stroke-width="1.5"/>
<circle cx="17.1665" cy="80" r="4.25" stroke="#D83713" stroke-width="1.5"/>
<circle cx="29.3335" cy="80" r="4.25" stroke="#D83713" stroke-width="1.5"/>
<circle cx="41.5" cy="80" r="4.25" stroke="#D83713" stroke-width="1.5"/>
<circle cx="53.6665" cy="80" r="4.25" stroke="#D83713" stroke-width="1.5"/>
<circle cx="65.8335" cy="80" r="4.25" stroke="#D83713" stroke-width="1.5"/>
<circle cx="78" cy="80" r="4.25" stroke="#D83713" stroke-width="1.5"/>
</svg>
